# xmcd CD database file
#
# Track frame offsets:
#	150
#	13144
#	30475
#	49067
#	76335
#	108782
#	135606
#	166332
#	192393
#	201521
#	218771
#	242142
#	264330
#
# Disc length: 3930 seconds
#
# Revision: 0
# Processed by: cddbd v1.5.2PL0 Copyright (c) Steve Scherf et al.
# Submitted via: CDex 1.70beta2
#
DISCID=af0f580d
DTITLE=Justyn Tyme - the day before tomorrow
DYEAR=2004
DGENRE=Jazz
TTITLE0=Day before tomorrow
TTITLE1=Bewegungsfreiheit
TTITLE2=Bangalore
TTITLE3=Ken Saro-Wiwa
TTITLE4=Slow hot wind
TTITLE5=Chateau de Ratilly
TTITLE6=Nebelmaschen
TTITLE7=Moving Day
TTITLE8=Rohr * *
TTITLE9=Endless Walk
TTITLE10=Everythings happens in groove
TTITLE11=Madal
TTITLE12=Song for my father
EXTD=YEAR: 2004
EXTT0=
EXTT1=
EXTT2=
EXTT3=
EXTT4=
EXTT5=
EXTT6=
EXTT7=
EXTT8=
EXTT9=
EXTT10=
EXTT11=
EXTT12=
PLAYORDER=
